<svg width="42" height="42" viewBox="0 0 42 42" fill="none" xmlns="http://www.w3.org/2000/svg">
<g filter="url(#filter0_d_2089_533)">
<path d="M21 1C12.1632 1 5 8.1632 5 17C5 25.8368 12.1632 33 21 33C29.8368 33 37 25.8368 37 17C37 8.1632 29.8368 1 21 1Z" stroke="#2E2C43" stroke-width="2" stroke-linecap="round" stroke-linejoin="round"/>
<path d="M8.63379 27.1537C8.63379 27.1537 12.2002 22.6001 21.0002 22.6001C29.8002 22.6001 33.3682 27.1537 33.3682 27.1537M21.0002 17.0001C22.2732 17.0001 23.4941 16.4944 24.3943 15.5942C25.2945 14.694 25.8002 13.4731 25.8002 12.2001C25.8002 10.927 25.2945 9.70615 24.3943 8.80597C23.4941 7.9058 22.2732 7.40009 21.0002 7.40009C19.7272 7.40009 18.5063 7.9058 17.6061 8.80597C16.7059 9.70615 16.2002 10.927 16.2002 12.2001C16.2002 13.4731 16.7059 14.694 17.6061 15.5942C18.5063 16.4944 19.7272 17.0001 21.0002 17.0001V17.0001Z" stroke="#2E2C43" stroke-width="2" stroke-linecap="round" stroke-linejoin="round"/>
</g>
<defs>
<filter id="filter0_d_2089_533" x="0" y="0" width="42" height="42" filterUnits="userSpaceOnUse" color-interpolation-filters="sRGB">
<feFlood flood-opacity="0" result="BackgroundImageFix"/>
<feColorMatrix in="SourceAlpha" type="matrix" values="0 0 0 0 0 0 0 0 0 0 0 0 0 0 0 0 0 0 127 0" result="hardAlpha"/>
<feOffset dy="4"/>
<feGaussianBlur stdDeviation="2"/>
<feComposite in2="hardAlpha" operator="out"/>
<feColorMatrix type="matrix" values="0 0 0 0 0 0 0 0 0 0 0 0 0 0 0 0 0 0 0.25 0"/>
<feBlend mode="normal" in2="BackgroundImageFix" result="effect1_dropShadow_2089_533"/>
<feBlend mode="normal" in="SourceGraphic" in2="effect1_dropShadow_2089_533" result="shape"/>
</filter>
</defs>
</svg>
