<svg width="42" height="42" viewBox="0 0 42 42" fill="none" xmlns="http://www.w3.org/2000/svg">
<path d="M15.2537 41.791L14.4179 35.1045C13.9652 34.9304 13.5389 34.7214 13.1391 34.4776C12.7393 34.2338 12.3472 33.9726 11.9627 33.694L5.74627 36.306L0 26.3806L5.3806 22.306C5.34577 22.0622 5.32836 21.8275 5.32836 21.6018V20.1913C5.32836 19.9643 5.34577 19.7289 5.3806 19.4851L0 15.4104L5.74627 5.48507L11.9627 8.09702C12.3458 7.81841 12.7463 7.55721 13.1642 7.31343C13.5821 7.06965 14 6.8607 14.4179 6.68657L15.2537 0H26.7463L27.5821 6.68657C28.0348 6.8607 28.4618 7.06965 28.863 7.31343C29.2642 7.55721 29.6556 7.81841 30.0373 8.09702L36.2537 5.48507L42 15.4104L36.6194 19.4851C36.6542 19.7289 36.6716 19.9643 36.6716 20.1913V21.5997C36.6716 21.8268 36.6368 22.0622 36.5672 22.306L41.9478 26.3806L36.2015 36.306L30.0373 33.694C29.6542 33.9726 29.2537 34.2338 28.8358 34.4776C28.4179 34.7214 28 34.9304 27.5821 35.1045L26.7463 41.791H15.2537ZM18.9104 37.6119H23.0373L23.7687 32.0746C24.8483 31.796 25.8499 31.3872 26.7734 30.8481C27.697 30.309 28.5412 29.6556 29.306 28.8881L34.4776 31.0299L36.5149 27.4776L32.0224 24.0821C32.1965 23.5945 32.3184 23.0812 32.3881 22.5421C32.4577 22.003 32.4925 21.4541 32.4925 20.8955C32.4925 20.3383 32.4577 19.7902 32.3881 19.251C32.3184 18.7119 32.1965 18.1979 32.0224 17.709L36.5149 14.3134L34.4776 10.7612L29.306 12.9552C28.5398 12.1542 27.6956 11.4842 26.7734 10.9451C25.8512 10.406 24.8497 9.99642 23.7687 9.71642L23.0896 4.1791H18.9627L18.2313 9.71642C17.1517 9.99503 16.1508 10.4046 15.2287 10.9451C14.3065 11.4856 13.4616 12.1382 12.694 12.903L7.52239 10.7612L5.48507 14.3134L9.97761 17.6567C9.80348 18.1791 9.68159 18.7015 9.61194 19.2239C9.54229 19.7463 9.50746 20.3035 9.50746 20.8955C9.50746 21.4527 9.54229 21.9925 9.61194 22.5149C9.68159 23.0373 9.80348 23.5597 9.97761 24.0821L5.48507 27.4776L7.52239 31.0299L12.694 28.8358C13.4602 29.6368 14.3051 30.3076 15.2287 30.8481C16.1522 31.3886 17.1531 31.7974 18.2313 32.0746L18.9104 37.6119ZM21.1045 28.209C23.1244 28.209 24.8483 27.495 26.2761 26.0672C27.704 24.6393 28.4179 22.9154 28.4179 20.8955C28.4179 18.8756 27.704 17.1517 26.2761 15.7239C24.8483 14.296 23.1244 13.5821 21.1045 13.5821C19.0498 13.5821 17.3168 14.296 15.9057 15.7239C14.4945 17.1517 13.7897 18.8756 13.791 20.8955C13.791 22.9154 14.4966 24.6393 15.9078 26.0672C17.3189 27.495 19.0511 28.209 21.1045 28.209Z" fill="black"/>
</svg>
